<?xml version="1.0" encoding="UTF-8" standalone="no"?><!DOCTYPE svg PUBLIC "-//W3C//DTD SVG 1.1//EN" "http://www.w3.org/Graphics/SVG/1.1/DTD/svg11.dtd"><svg width="44x" height="44px" viewBox="0 0 512 512" version="1.1" xmlns="http://www.w3.org/2000/svg" xmlns:xlink="http://www.w3.org/1999/xlink" xml:space="preserve" xmlns:serif="http://www.serif.com/" style="fill-rule:evenodd;clip-rule:evenodd;stroke-linejoin:round;stroke-miterlimit:1.41421;"><rect id="App-Icon---Flat-for-SVG" serif:id="App Icon - Flat for SVG" x="0" y="0" width="512" height="512" style="fill:none;"/><clipPath id="_clip1"><rect x="0" y="0" width="512" height="512"/></clipPath><g clip-path="url(#_clip1)"><path d="M365.858,0c50.817,0 69.244,5.291 87.822,15.227c18.578,9.935 33.158,24.515 43.093,43.093c9.917,18.543 15.207,36.936 15.227,87.821l0,219.718c-0.02,50.885 -5.31,69.278 -15.227,87.821c-9.935,18.578 -24.515,33.158 -43.093,43.093c-18.516,9.903 -36.882,15.192 -87.822,15.227l-219.717,0c-50.816,0 -69.243,-5.291 -87.821,-15.227c-18.578,-9.935 -33.158,-24.515 -43.093,-43.093c-9.936,-18.578 -15.227,-37.005 -15.227,-87.822l0,146.142l0,-512l0,146.141c0,-50.816 5.291,-69.243 15.227,-87.821c9.935,-18.578 24.515,-33.158 43.093,-43.093c18.578,-9.936 37.005,-15.227 87.821,-15.227l219.717,0Z" style="fill:url(#_Linear2);"/><g id="Icon"><g><path id="Background" d="M264.357,228.929c16.622,-39.079 35.43,-77.828 58.643,-115.929c8.76,32.11 21.919,61.666 41,88l-13,55c14.882,-35.486 30.217,-69.747 47,-102c31.527,109.487 57.218,156.788 81,183l-72,0c-1.723,5.31 -1.67,10.63 0,16l-40,0c1.809,-5.949 1.563,-11.188 0,-16l-63.666,0c24.461,-51.074 -56.916,-43.188 -38.977,-108.071Zm-127.357,124.071l-40,0c1.781,-5.225 1.826,-10.561 0,-16l-64,0c32.593,-47.409 62.501,-103.918 81,-177c18.272,24.803 36.275,53.029 54,83l-14,-42c16.804,-32.205 30.753,-63.618 41,-95c11.265,41.342 26.618,79.184 44.906,114.163c-54.971,34.589 19.896,73.609 -50.028,116.837l-52.878,0c-1.692,4.923 -1.749,10.186 0,16Z" style="fill:url(#_Linear3);"/><path id="Foreground" d="M189.795,337l-121.359,0c27.501,-46.618 40.432,-110.866 45.564,-177c18.272,24.803 36.275,53.029 54,83l-14,-42c16.787,-32.17 30.724,-63.552 41,-95c6.024,50.841 4.439,93.89 26.261,133.413c-13.92,29.654 25.897,62.239 -31.466,97.587Zm74.559,-108.032c16.593,-39.048 35.397,-77.793 58.646,-115.968c2.806,16.664 15.008,83.963 34.175,116.877l-6.175,26.123l9.828,-23.013c11.796,-27.286 24.04,-53.751 37.172,-78.987c14.435,90.507 25.897,148.693 45.73,183l-140.441,0c24.556,-51.075 -56.848,-43.169 -38.935,-108.032Z" style="fill:url(#_Linear4);"/></g></g></g><defs><linearGradient id="_Linear2" x1="0" y1="0" x2="1" y2="0" gradientUnits="userSpaceOnUse" gradientTransform="matrix(3.1351e-14,-512,512,3.1351e-14,96,512)"><stop offset="0" style="stop-color:#9c9;stop-opacity:1"/><stop offset="1" style="stop-color:#69c;stop-opacity:1"/></linearGradient><linearGradient id="_Linear3" x1="0" y1="0" x2="1" y2="0" gradientUnits="userSpaceOnUse" gradientTransform="matrix(1.41447e-14,-231,231,1.41447e-14,390,337)"><stop offset="0" style="stop-color:#f2f0ec;stop-opacity:0.733333"/><stop offset="0.49" style="stop-color:#f2f0ec;stop-opacity:0.540654"/><stop offset="1" style="stop-color:#f2f0ec;stop-opacity:0"/></linearGradient><linearGradient id="_Linear4" x1="0" y1="0" x2="1" y2="0" gradientUnits="userSpaceOnUse" gradientTransform="matrix(1.89208e-14,-309,309,1.89208e-14,343,337)"><stop offset="0" style="stop-color:#fff;stop-opacity:0.768627"/><stop offset="0.5" style="stop-color:#fff;stop-opacity:0.578731"/><stop offset="1" style="stop-color:#fff;stop-opacity:0"/></linearGradient></defs></svg>
